<svg width="1200" height="470" viewBox="0 0 1200 470" fill="none" xmlns="http://www.w3.org/2000/svg" role="img" aria-labelledby="title desc">
  <title id="title">Experience</title>
  <desc id="desc">Experience timeline for Aryan Bhat.</desc>
  <defs>
    <linearGradient id="edge" x1="38" y1="34" x2="1162" y2="436" gradientUnits="userSpaceOnUse">
      <stop stop-color="#39ff14"/><stop offset="0.52" stop-color="#00d4ff"/><stop offset="1" stop-color="#b026ff"/>
    </linearGradient>
    <pattern id="grid" width="34" height="34" patternUnits="userSpaceOnUse">
      <path d="M34 0H0V34" stroke="#94f985" stroke-opacity="0.05"/>
    </pattern>
    <style>
      .sans { font-family: Inter, ui-sans-serif, system-ui, -apple-system, BlinkMacSystemFont, "Segoe UI", Arial, sans-serif; }
      .mono { font-family: "JetBrains Mono", "SFMono-Regular", Consolas, "Liberation Mono", Menlo, monospace; }
    </style>
  </defs>
  <rect width="1200" height="470" fill="transparent"/>
  <rect x="38" y="34" width="1124" height="402" rx="28" fill="#070b10"/>
  <rect x="39" y="35" width="1122" height="400" rx="27" stroke="url(#edge)" stroke-width="2"/>
  <rect x="38" y="34" width="1124" height="402" rx="28" fill="url(#grid)"/>

  <g transform="translate(76 72)">
    <rect x="0" y="0" width="156" height="30" rx="15" fill="#0d141d" stroke="#263449"/>
    <text class="mono" x="20" y="20" fill="#39ff14" font-size="12" font-weight="900" letter-spacing="2">EXPERIENCE</text>
    <text class="sans" x="0" y="72" fill="#f8fafc" font-size="34" font-weight="900">Product engineering across data, APIs, and interfaces.</text>
  </g>

  <g transform="translate(100 188)">
    <path d="M0 0H1012" stroke="#223047" stroke-width="2"/>
    <circle cx="0" cy="0" r="8" fill="#39ff14"/>
    <circle cx="336" cy="0" r="8" fill="#00d4ff"/>
    <circle cx="672" cy="0" r="8" fill="#b026ff"/>
    <circle cx="1012" cy="0" r="8" fill="#39ff14"/>

    <g transform="translate(0 34)">
      <rect x="0" y="0" width="245" height="158" rx="18" fill="#0a1018" stroke="#213047"/>
      <text class="mono" x="18" y="30" fill="#39ff14" font-size="12" font-weight="900">MAR 2026 - PRESENT</text>
      <text class="sans" x="18" y="61" fill="#f8fafc" font-size="18" font-weight="900">Founding Frontend</text>
      <text class="sans" x="18" y="84" fill="#f8fafc" font-size="18" font-weight="900">Developer</text>
      <text class="sans" x="18" y="109" fill="#cbd5e1" font-size="16" font-weight="800">Jammu Book Club</text>
      <text class="sans" x="18" y="134" fill="#94a3b8" font-size="14" font-weight="700">React frontend, UI systems,</text>
      <text class="sans" x="18" y="154" fill="#94a3b8" font-size="14" font-weight="700">product engineering.</text>
    </g>

    <g transform="translate(256 34)">
      <rect x="0" y="0" width="245" height="158" rx="18" fill="#0a1018" stroke="#213047"/>
      <text class="mono" x="18" y="30" fill="#00d4ff" font-size="12" font-weight="900">AUG 2025 - JAN 2026</text>
      <text class="sans" x="18" y="66" fill="#f8fafc" font-size="18" font-weight="900">Full Stack / SDE Intern</text>
      <text class="sans" x="18" y="94" fill="#cbd5e1" font-size="16" font-weight="800">BitePay India</text>
      <text class="sans" x="18" y="124" fill="#94a3b8" font-size="14" font-weight="700">Backend APIs, auth systems,</text>
      <text class="sans" x="18" y="146" fill="#94a3b8" font-size="14" font-weight="700">scalable architecture.</text>
    </g>

    <g transform="translate(512 34)">
      <rect x="0" y="0" width="245" height="158" rx="18" fill="#0a1018" stroke="#213047"/>
      <text class="mono" x="18" y="30" fill="#b026ff" font-size="12" font-weight="900">JAN 2025 - APR 2025</text>
      <text class="sans" x="18" y="66" fill="#f8fafc" font-size="18" font-weight="900">Project Intern</text>
      <text class="sans" x="18" y="94" fill="#cbd5e1" font-size="16" font-weight="800">HT Digital Streams</text>
      <text class="sans" x="18" y="124" fill="#94a3b8" font-size="14" font-weight="700">Analytics dashboards, KPI</text>
      <text class="sans" x="18" y="146" fill="#94a3b8" font-size="14" font-weight="700">systems, data pipelines.</text>
    </g>

    <g transform="translate(768 34)">
      <rect x="0" y="0" width="245" height="158" rx="18" fill="#0a1018" stroke="#213047"/>
      <text class="mono" x="18" y="30" fill="#39ff14" font-size="12" font-weight="900">MAY 2021 - JUN 2021</text>
      <text class="sans" x="18" y="66" fill="#f8fafc" font-size="18" font-weight="900">Engagement Intern</text>
      <text class="sans" x="18" y="94" fill="#cbd5e1" font-size="16" font-weight="800">Metvy</text>
      <text class="sans" x="18" y="124" fill="#94a3b8" font-size="14" font-weight="700">User analytics, behavioral</text>
      <text class="sans" x="18" y="146" fill="#94a3b8" font-size="14" font-weight="700">insights, operations.</text>
    </g>
  </g>
</svg>
