<svg width="1200" height="410" viewBox="0 0 1200 410" fill="none" xmlns="http://www.w3.org/2000/svg" role="img" aria-labelledby="title desc">
  <title id="title">Current Focus</title>
  <desc id="desc">Current focus areas with terminal-style progress bars.</desc>
  <defs>
    <linearGradient id="edge" x1="38" y1="34" x2="1162" y2="376" gradientUnits="userSpaceOnUse">
      <stop stop-color="#39ff14"/><stop offset="0.52" stop-color="#00d4ff"/><stop offset="1" stop-color="#b026ff"/>
    </linearGradient>
    <style>
      .sans { font-family: Inter, ui-sans-serif, system-ui, -apple-system, BlinkMacSystemFont, "Segoe UI", Arial, sans-serif; }
      .mono { font-family: "JetBrains Mono", "SFMono-Regular", Consolas, "Liberation Mono", Menlo, monospace; }
      .bar-bg { fill:#172033; }
    </style>
  </defs>
  <rect width="1200" height="410" fill="transparent"/>
  <rect x="38" y="34" width="1124" height="342" rx="28" fill="#070b10"/>
  <rect x="39" y="35" width="1122" height="340" rx="27" stroke="url(#edge)" stroke-width="2"/>
  <g transform="translate(76 72)">
    <rect x="0" y="0" width="172" height="30" rx="15" fill="#0d141d" stroke="#263449"/>
    <text class="mono" x="20" y="20" fill="#39ff14" font-size="12" font-weight="900" letter-spacing="2">CURRENT FOCUS</text>
    <text class="sans" x="0" y="72" fill="#f8fafc" font-size="34" font-weight="900">What I am sharpening right now.</text>
  </g>
  <g transform="translate(76 184)" class="mono" font-size="15" font-weight="850">
    <text x="0" y="0" fill="#39ff14">$ aryan --status</text>
    <g transform="translate(0 42)">
      <text x="0" y="0" fill="#cbd5e1">AI-integrated operational systems</text>
      <rect class="bar-bg" x="410" y="-13" width="520" height="14" rx="7"/>
      <rect x="410" y="-13" width="438" height="14" rx="7" fill="#39ff14"/>
    </g>
    <g transform="translate(0 82)">
      <text x="0" y="0" fill="#cbd5e1">Workflow automation platforms</text>
      <rect class="bar-bg" x="410" y="-13" width="520" height="14" rx="7"/>
      <rect x="410" y="-13" width="344" height="14" rx="7" fill="#00d4ff"/>
    </g>
    <g transform="translate(0 122)">
      <text x="0" y="0" fill="#cbd5e1">Backend architecture with FastAPI</text>
      <rect class="bar-bg" x="410" y="-13" width="520" height="14" rx="7"/>
      <rect x="410" y="-13" width="420" height="14" rx="7" fill="#39ff14"/>
    </g>
    <g transform="translate(0 162)">
      <text x="0" y="0" fill="#cbd5e1">Analytics-driven SaaS applications</text>
      <rect class="bar-bg" x="410" y="-13" width="520" height="14" rx="7"/>
      <rect x="410" y="-13" width="286" height="14" rx="7" fill="#b026ff"/>
    </g>
  </g>
</svg>
