<svg width="1200" height="1000" viewBox="0 0 1200 1000" fill="none" xmlns="http://www.w3.org/2000/svg" role="img" aria-labelledby="title desc">
  <title id="title">Tech Stack — Aryan Bhat</title>
  <desc id="desc">Engineering stack organized by category, with AI/LLM engineering as the primary focus.</desc>
  <defs>
    <linearGradient id="edge" x1="38" y1="34" x2="1162" y2="966" gradientUnits="userSpaceOnUse">
      <stop stop-color="#39ff14"/><stop offset="0.5" stop-color="#00d4ff"/><stop offset="1" stop-color="#b026ff"/>
    </linearGradient>
    <linearGradient id="accent-green" x1="0" y1="0" x2="500" y2="0" gradientUnits="userSpaceOnUse">
      <stop offset="0%" stop-color="#39ff14" stop-opacity="0"/>
      <stop offset="25%" stop-color="#39ff14" stop-opacity="0.8"/>
      <stop offset="75%" stop-color="#39ff14" stop-opacity="0.8"/>
      <stop offset="100%" stop-color="#39ff14" stop-opacity="0"/>
    </linearGradient>
    <linearGradient id="accent-cyan" x1="0" y1="0" x2="500" y2="0" gradientUnits="userSpaceOnUse">
      <stop offset="0%" stop-color="#00d4ff" stop-opacity="0"/>
      <stop offset="25%" stop-color="#00d4ff" stop-opacity="0.8"/>
      <stop offset="75%" stop-color="#00d4ff" stop-opacity="0.8"/>
      <stop offset="100%" stop-color="#00d4ff" stop-opacity="0"/>
    </linearGradient>
    <linearGradient id="accent-purple" x1="0" y1="0" x2="500" y2="0" gradientUnits="userSpaceOnUse">
      <stop offset="0%" stop-color="#b026ff" stop-opacity="0"/>
      <stop offset="25%" stop-color="#b026ff" stop-opacity="0.8"/>
      <stop offset="75%" stop-color="#b026ff" stop-opacity="0.8"/>
      <stop offset="100%" stop-color="#b026ff" stop-opacity="0"/>
    </linearGradient>
    <linearGradient id="chipEdge-green" x1="0" y1="0" x2="120" y2="34" gradientUnits="userSpaceOnUse">
      <stop stop-color="#39ff14" stop-opacity="0.7"/><stop offset="1" stop-color="#39ff14" stop-opacity="0.3"/>
    </linearGradient>
    <linearGradient id="chipEdge-cyan" x1="0" y1="0" x2="120" y2="34" gradientUnits="userSpaceOnUse">
      <stop stop-color="#00d4ff" stop-opacity="0.7"/><stop offset="1" stop-color="#00d4ff" stop-opacity="0.3"/>
    </linearGradient>
    <linearGradient id="chipEdge-purple" x1="0" y1="0" x2="120" y2="34" gradientUnits="userSpaceOnUse">
      <stop stop-color="#b026ff" stop-opacity="0.7"/><stop offset="1" stop-color="#b026ff" stop-opacity="0.3"/>
    </linearGradient>
    <pattern id="grid" width="34" height="34" patternUnits="userSpaceOnUse">
      <path d="M34 0H0V34" stroke="#94f985" stroke-opacity="0.045"/>
    </pattern>
    <radialGradient id="glow-left" cx="0" cy="0" r="1" gradientUnits="userSpaceOnUse" gradientTransform="translate(172 92) rotate(44) scale(430 270)">
      <stop stop-color="#39ff14" stop-opacity="0.34"/>
      <stop offset="0.55" stop-color="#39ff14" stop-opacity="0.09"/>
      <stop offset="1" stop-color="#39ff14" stop-opacity="0"/>
    </radialGradient>
    <radialGradient id="glow-right" cx="0" cy="0" r="1" gradientUnits="userSpaceOnUse" gradientTransform="translate(1000 112) rotate(134) scale(360 300)">
      <stop stop-color="#00d4ff" stop-opacity="0.28"/>
      <stop offset="0.58" stop-color="#b026ff" stop-opacity="0.09"/>
      <stop offset="1" stop-color="#b026ff" stop-opacity="0"/>
    </radialGradient>
    <filter id="soft-shadow" x="0" y="0" width="1200" height="1000" filterUnits="userSpaceOnUse" color-interpolation-filters="sRGB">
      <feDropShadow dx="0" dy="22" stdDeviation="24" flood-color="#020617" flood-opacity="0.26"/>
    </filter>
    <clipPath id="card-clip"><rect x="38" y="34" width="1124" height="932" rx="28"/></clipPath>
    <style>
      .sans { font-family: Inter, ui-sans-serif, system-ui, -apple-system, BlinkMacSystemFont, "Segoe UI", Arial, sans-serif; }
      .mono { font-family: "JetBrains Mono", "SFMono-Regular", Consolas, "Liberation Mono", Menlo, monospace; }
      .kicker { fill:#39ff14; font-size:12px; font-weight:900; letter-spacing:2px; }
      .group { fill:#f8fafc; font-size:22px; font-weight:900; }
      .hint { fill:#94a3b8; font-size:15px; font-weight:700; }
      .chip { fill:#e5e7eb; font-size:16px; font-weight:850; }
      .scan { animation: scan 5.5s ease-in-out infinite; }
      @keyframes scan {
        0% { transform: translateY(-90px); opacity: 0; }
        18% { opacity: 0.55; }
        52% { opacity: 0.32; }
        100% { transform: translateY(960px); opacity: 0; }
      }
    </style>
  </defs>

  <rect width="1200" height="1000" fill="transparent"/>
  <rect x="38" y="34" width="1124" height="932" rx="28" fill="#070b10" filter="url(#soft-shadow)"/>
  <rect x="39" y="35" width="1122" height="930" rx="27" stroke="url(#edge)" stroke-width="2"/>
  <rect x="38" y="34" width="1124" height="932" rx="28" fill="url(#grid)"/>
  <g clip-path="url(#card-clip)">
    <rect x="38" y="34" width="1124" height="932" fill="url(#glow-left)"/>
    <rect x="38" y="34" width="1124" height="932" fill="url(#glow-right)"/>
    <rect class="scan" x="38" y="0" width="1124" height="68" fill="#39ff14" opacity="0.08"/>
  </g>

  <g transform="translate(76 72)">
    <rect x="0" y="0" width="154" height="32" rx="16" fill="#0d141d" stroke="#263449"/>
    <text class="mono kicker" x="20" y="21">TECH STACK</text>
    <text class="sans" x="0" y="78" fill="#f8fafc" font-size="36" font-weight="900">Defined engineering stack.</text>
    <text class="sans" x="0" y="114" fill="#94a3b8" font-size="19" font-weight="650">Organized by the way I build — AI first, full stack by design.</text>
  </g>

  <g transform="translate(76 214)">
    <rect x="0" y="0" width="1048" height="210" rx="22" fill="#0a1018" stroke="url(#edge)" stroke-width="1.5"/>
    <text class="mono" x="860" y="168" fill="#39ff14" font-size="130" font-weight="900" opacity="0.04">01</text>
    <text class="mono" x="26" y="34" fill="#39ff14" font-size="17" font-weight="900" letter-spacing="1.8">01 / AI · LLM ENGINEERING</text>
    <text class="sans group" x="26" y="70">Core intelligence layer</text>
    <text class="sans hint" x="26" y="98">RAG pipelines, embeddings, retrieval systems, and ML engineering.</text>
    <rect x="26" y="114" width="68" height="34" rx="10" fill="#111827" stroke="#39ff14" stroke-opacity="0.6"/>
    <text class="sans chip" x="60" y="137" text-anchor="middle">RAG</text>
    <rect x="106" y="114" width="120" height="34" rx="10" fill="#111827" stroke="#39ff14" stroke-opacity="0.6"/>
    <text class="sans chip" x="166" y="137" text-anchor="middle">Embeddings</text>
    <rect x="238" y="114" width="76" height="34" rx="10" fill="#111827" stroke="#39ff14" stroke-opacity="0.6"/>
    <text class="sans chip" x="276" y="137" text-anchor="middle">FAISS</text>
    <rect x="326" y="114" width="72" height="34" rx="10" fill="#111827" stroke="#39ff14" stroke-opacity="0.6"/>
    <text class="sans chip" x="362" y="137" text-anchor="middle">BM25</text>
    <rect x="26" y="152" width="120" height="34" rx="10" fill="#111827" stroke="#39ff14" stroke-opacity="0.6"/>
    <text class="sans chip" x="86" y="175" text-anchor="middle">Scikit-Learn</text>
    <rect x="158" y="152" width="62" height="34" rx="10" fill="#111827" stroke="#39ff14" stroke-opacity="0.6"/>
    <text class="sans chip" x="189" y="175" text-anchor="middle">NLP</text>
    <rect x="232" y="152" width="210" height="34" rx="10" fill="#111827" stroke="#39ff14" stroke-opacity="0.6"/>
    <text class="sans chip" x="337" y="175" text-anchor="middle">Sentence Transformers</text>
  </g>

  <g transform="translate(76 426)">

    <g>
      <rect x="0" y="0" width="500" height="156" rx="22" fill="#0a1018" stroke="#1a2535"/>
      <rect x="0" y="0" width="500" height="3" rx="1" fill="url(#accent-green)"/>
      <text class="mono" x="370" y="140" fill="#39ff14" font-size="110" font-weight="900" opacity="0.04">02</text>
      <text class="mono" x="26" y="34" fill="#39ff14" font-size="17" font-weight="900" letter-spacing="1.8">02 / LANGUAGES</text>
      <text class="sans group" x="26" y="70">Core implementation layer</text>
      <text class="sans hint" x="26" y="98">General-purpose scripting, type-safe web, and query work.</text>
      <rect x="26" y="114" width="88" height="34" rx="10" fill="#111827" stroke="url(#chipEdge-green)"/>
      <text class="sans chip" x="70" y="137" text-anchor="middle">Python</text>
      <rect x="126" y="114" width="116" height="34" rx="10" fill="#111827" stroke="url(#chipEdge-green)"/>
      <text class="sans chip" x="184" y="137" text-anchor="middle">TypeScript</text>
      <rect x="254" y="114" width="58" height="34" rx="10" fill="#111827" stroke="url(#chipEdge-green)"/>
      <text class="sans chip" x="283" y="137" text-anchor="middle">SQL</text>
    </g>

    <g transform="translate(548 0)">
      <rect x="0" y="0" width="500" height="156" rx="22" fill="#0a1018" stroke="#1a2535"/>
      <rect x="0" y="0" width="500" height="3" rx="1" fill="url(#accent-cyan)"/>
      <text class="mono" x="370" y="140" fill="#00d4ff" font-size="110" font-weight="900" opacity="0.04">03</text>
      <text class="mono" x="26" y="34" fill="#00d4ff" font-size="17" font-weight="900" letter-spacing="1.8">03 / BACKEND &amp; APIs</text>
      <text class="sans group" x="26" y="70">APIs, auth, and service logic</text>
      <text class="sans hint" x="26" y="98">Production-oriented backends and clean contracts.</text>
      <rect x="26" y="114" width="92" height="34" rx="10" fill="#111827" stroke="url(#chipEdge-cyan)"/>
      <text class="sans chip" x="72" y="137" text-anchor="middle">FastAPI</text>
      <rect x="130" y="114" width="118" height="34" rx="10" fill="#111827" stroke="url(#chipEdge-cyan)"/>
      <text class="sans chip" x="189" y="137" text-anchor="middle">SQLAlchemy</text>
      <rect x="260" y="114" width="90" height="34" rx="10" fill="#111827" stroke="url(#chipEdge-cyan)"/>
      <text class="sans chip" x="305" y="137" text-anchor="middle">Pydantic</text>
      <rect x="362" y="114" width="58" height="34" rx="10" fill="#111827" stroke="url(#chipEdge-cyan)"/>
      <text class="sans chip" x="391" y="137" text-anchor="middle">JWT</text>
    </g>

    <g transform="translate(0 178)">
      <rect x="0" y="0" width="500" height="156" rx="22" fill="#0a1018" stroke="#1a2535"/>
      <rect x="0" y="0" width="500" height="3" rx="1" fill="url(#accent-purple)"/>
      <text class="mono" x="370" y="140" fill="#b026ff" font-size="110" font-weight="900" opacity="0.04">04</text>
      <text class="mono" x="26" y="34" fill="#b026ff" font-size="17" font-weight="900" letter-spacing="1.8">04 / FRONTEND</text>
      <text class="sans group" x="26" y="70">Interfaces and product surfaces</text>
      <text class="sans hint" x="26" y="98">UI implementation, dashboards, and interactive tools.</text>
      <rect x="26" y="114" width="78" height="34" rx="10" fill="#111827" stroke="url(#chipEdge-purple)"/>
      <text class="sans chip" x="65" y="137" text-anchor="middle">React</text>
      <rect x="116" y="114" width="90" height="34" rx="10" fill="#111827" stroke="url(#chipEdge-purple)"/>
      <text class="sans chip" x="161" y="137" text-anchor="middle">Next.js</text>
      <rect x="218" y="114" width="128" height="34" rx="10" fill="#111827" stroke="url(#chipEdge-purple)"/>
      <text class="sans chip" x="282" y="137" text-anchor="middle">Tailwind CSS</text>
    </g>

    <g transform="translate(548 178)">
      <rect x="0" y="0" width="500" height="156" rx="22" fill="#0a1018" stroke="#1a2535"/>
      <rect x="0" y="0" width="500" height="3" rx="1" fill="url(#accent-green)"/>
      <text class="mono" x="370" y="140" fill="#39ff14" font-size="110" font-weight="900" opacity="0.04">05</text>
      <text class="mono" x="26" y="34" fill="#39ff14" font-size="17" font-weight="900" letter-spacing="1.8">05 / DATA &amp; ANALYTICS</text>
      <text class="sans group" x="26" y="70">Analytics and data engineering</text>
      <text class="sans hint" x="26" y="98">Data manipulation, charts, and pipeline tooling.</text>
      <rect x="26" y="114" width="82" height="34" rx="10" fill="#111827" stroke="url(#chipEdge-green)"/>
      <text class="sans chip" x="67" y="137" text-anchor="middle">Pandas</text>
      <rect x="120" y="114" width="78" height="34" rx="10" fill="#111827" stroke="url(#chipEdge-green)"/>
      <text class="sans chip" x="159" y="137" text-anchor="middle">NumPy</text>
      <rect x="210" y="114" width="72" height="34" rx="10" fill="#111827" stroke="url(#chipEdge-green)"/>
      <text class="sans chip" x="246" y="137" text-anchor="middle">Plotly</text>
      <rect x="294" y="114" width="100" height="34" rx="10" fill="#111827" stroke="url(#chipEdge-green)"/>
      <text class="sans chip" x="344" y="137" text-anchor="middle">Streamlit</text>
    </g>

    <g transform="translate(0 356)">
      <rect x="0" y="0" width="500" height="156" rx="22" fill="#0a1018" stroke="#1a2535"/>
      <rect x="0" y="0" width="500" height="3" rx="1" fill="url(#accent-cyan)"/>
      <text class="mono" x="370" y="140" fill="#00d4ff" font-size="110" font-weight="900" opacity="0.04">06</text>
      <text class="mono" x="26" y="34" fill="#00d4ff" font-size="17" font-weight="900" letter-spacing="1.8">06 / DATABASES</text>
      <text class="sans group" x="26" y="70">Relational data modeling</text>
      <text class="sans hint" x="26" y="98">Schema design, query layers, and persistence choices.</text>
      <rect x="26" y="114" width="118" height="34" rx="10" fill="#111827" stroke="url(#chipEdge-cyan)"/>
      <text class="sans chip" x="85" y="137" text-anchor="middle">PostgreSQL</text>
      <rect x="156" y="114" width="78" height="34" rx="10" fill="#111827" stroke="url(#chipEdge-cyan)"/>
      <text class="sans chip" x="195" y="137" text-anchor="middle">MySQL</text>
      <rect x="246" y="114" width="78" height="34" rx="10" fill="#111827" stroke="url(#chipEdge-cyan)"/>
      <text class="sans chip" x="285" y="137" text-anchor="middle">SQLite</text>
    </g>

    <g transform="translate(548 356)">
      <rect x="0" y="0" width="500" height="156" rx="22" fill="#0a1018" stroke="#1a2535"/>
      <rect x="0" y="0" width="500" height="3" rx="1" fill="url(#accent-purple)"/>
      <text class="mono" x="370" y="140" fill="#b026ff" font-size="110" font-weight="900" opacity="0.04">07</text>
      <text class="mono" x="26" y="34" fill="#b026ff" font-size="17" font-weight="900" letter-spacing="1.8">07 / DEPLOYMENT &amp; TOOLS</text>
      <text class="sans group" x="26" y="70">Shipping and operational tooling</text>
      <text class="sans hint" x="26" y="98">Containers, cloud deploys, and version control.</text>
      <rect x="26" y="114" width="86" height="34" rx="10" fill="#111827" stroke="url(#chipEdge-purple)"/>
      <text class="sans chip" x="69" y="137" text-anchor="middle">Docker</text>
      <rect x="124" y="114" width="86" height="34" rx="10" fill="#111827" stroke="url(#chipEdge-purple)"/>
      <text class="sans chip" x="167" y="137" text-anchor="middle">GitHub</text>
      <rect x="222" y="114" width="72" height="34" rx="10" fill="#111827" stroke="url(#chipEdge-purple)"/>
      <text class="sans chip" x="258" y="137" text-anchor="middle">Vercel</text>
      <rect x="306" y="114" width="86" height="34" rx="10" fill="#111827" stroke="url(#chipEdge-purple)"/>
      <text class="sans chip" x="349" y="137" text-anchor="middle">Railway</text>
      <rect x="404" y="114" width="78" height="34" rx="10" fill="#111827" stroke="url(#chipEdge-purple)"/>
      <text class="sans chip" x="443" y="137" text-anchor="middle">Render</text>
    </g>

  </g>
</svg>
